<svg xmlns="http://www.w3.org/2000/svg" width="1200" height="700" viewBox="0 0 1200 700">
  <defs>
    <linearGradient id="g1" x1="0" y1="0" x2="1" y2="1">
      <stop offset="0" stop-color="#3b82f6" stop-opacity="0.9"/>
      <stop offset="0.55" stop-color="#22c55e" stop-opacity="0.35"/>
      <stop offset="1" stop-color="#ec4899" stop-opacity="0.35"/>
    </linearGradient>
    <radialGradient id="r1" cx="28%" cy="22%" r="70%">
      <stop offset="0" stop-color="#ffffff" stop-opacity="0.35"/>
      <stop offset="0.6" stop-color="#ffffff" stop-opacity="0.05"/>
      <stop offset="1" stop-color="#000000" stop-opacity="0"/>
    </radialGradient>
  </defs>
  <rect width="1200" height="700" fill="url(#g1)"/>
  <rect width="1200" height="700" fill="url(#r1)"/>
  <g transform="translate(130,235)">
    <path d="M70 190 C110 140, 160 115, 230 110 C305 105, 365 80, 440 55 C520 28, 640 35, 720 95 C770 132, 840 155, 910 170 C960 182, 1000 220, 1020 270 L1020 330 L70 330 Z"
          fill="rgba(10,10,15,0.28)" stroke="rgba(255,255,255,0.25)" stroke-width="2"/>
    <path d="M140 250 C210 210, 305 195, 420 195 C555 195, 640 200, 760 250"
          fill="none" stroke="rgba(255,255,255,0.45)" stroke-width="6" stroke-linecap="round"/>
    <g>
      <circle cx="280" cy="330" r="58" fill="rgba(255,255,255,0.1)" stroke="rgba(255,255,255,0.35)" stroke-width="3"/>
      <circle cx="280" cy="330" r="28" fill="rgba(0,0,0,0.18)"/>
      <circle cx="720" cy="330" r="58" fill="rgba(255,255,255,0.1)" stroke="rgba(255,255,255,0.35)" stroke-width="3"/>
      <circle cx="720" cy="330" r="28" fill="rgba(0,0,0,0.18)"/>
    </g>
    <rect x="260" y="150" width="480" height="80" rx="28" fill="rgba(255,255,255,0.12)" stroke="rgba(255,255,255,0.28)" stroke-width="2"/>
    <text x="500" y="205" text-anchor="middle" font-family="ui-sans-serif, system-ui, -apple-system, Segoe UI, Roboto" font-size="34" font-weight="700" fill="rgba(255,255,255,0.92)">BMW 330i</text>
    <text x="500" y="245" text-anchor="middle" font-family="ui-sans-serif, system-ui, -apple-system, Segoe UI, Roboto" font-size="16" font-weight="600" fill="rgba(255,255,255,0.75)">Sport Sedan Feel</text>
  </g>
</svg>

